<mxfile host="app.diagrams.net" modified="2021-08-10T23:32:58.766Z" agent="5.0 (Macintosh)" etag="olunjFMMvP1mwbWFD_0s" version="14.9.2" type="github">
  <diagram id="oQvwsjByA2I3NB_TEqKx" name="Page-1">
    <mxGraphModel dx="1554" dy="1635" grid="1" gridSize="10" guides="1" tooltips="1" connect="1" arrows="1" fold="1" page="1" pageScale="1" pageWidth="1100" pageHeight="850" math="0" shadow="0">
      <root>
        <mxCell id="0" />
        <mxCell id="1" parent="0" />
        <mxCell id="A8x3jaF49j4qQxxztvDG-6" style="edgeStyle=orthogonalEdgeStyle;rounded=0;orthogonalLoop=1;jettySize=auto;html=1;exitX=0.25;exitY=1;exitDx=0;exitDy=0;entryX=1;entryY=0.75;entryDx=0;entryDy=0;" parent="1" source="A8x3jaF49j4qQxxztvDG-1" target="A8x3jaF49j4qQxxztvDG-2" edge="1">
          <mxGeometry relative="1" as="geometry" />
        </mxCell>
        <mxCell id="A8x3jaF49j4qQxxztvDG-20" style="edgeStyle=orthogonalEdgeStyle;rounded=0;orthogonalLoop=1;jettySize=auto;html=1;exitX=1;exitY=0.25;exitDx=0;exitDy=0;entryX=0.25;entryY=0;entryDx=0;entryDy=0;" parent="1" source="A8x3jaF49j4qQxxztvDG-1" target="A8x3jaF49j4qQxxztvDG-19" edge="1">
          <mxGeometry relative="1" as="geometry" />
        </mxCell>
        <mxCell id="A8x3jaF49j4qQxxztvDG-1" value="&lt;div&gt;APICONNECT&lt;/div&gt;" style="whiteSpace=wrap;html=1;aspect=fixed;fillColor=#e3c800;strokeColor=#B09500;fontColor=#000000;" parent="1" vertex="1">
          <mxGeometry x="490" y="170" width="100" height="100" as="geometry" />
        </mxCell>
        <mxCell id="A8x3jaF49j4qQxxztvDG-5" style="edgeStyle=orthogonalEdgeStyle;rounded=0;orthogonalLoop=1;jettySize=auto;html=1;exitX=1;exitY=0.25;exitDx=0;exitDy=0;entryX=0.25;entryY=0;entryDx=0;entryDy=0;" parent="1" source="A8x3jaF49j4qQxxztvDG-2" target="A8x3jaF49j4qQxxztvDG-1" edge="1">
          <mxGeometry relative="1" as="geometry">
            <mxPoint x="480" y="195" as="targetPoint" />
          </mxGeometry>
        </mxCell>
        <mxCell id="A8x3jaF49j4qQxxztvDG-12" style="edgeStyle=orthogonalEdgeStyle;rounded=0;orthogonalLoop=1;jettySize=auto;html=1;exitX=0;exitY=1;exitDx=0;exitDy=0;entryX=1;entryY=1;entryDx=0;entryDy=0;" parent="1" source="A8x3jaF49j4qQxxztvDG-2" target="A8x3jaF49j4qQxxztvDG-3" edge="1">
          <mxGeometry relative="1" as="geometry" />
        </mxCell>
        <mxCell id="A8x3jaF49j4qQxxztvDG-2" value="MANAGERS" style="rounded=1;whiteSpace=wrap;html=1;strokeColor=#666666;fontColor=#333333;fillColor=#00CC00;" parent="1" vertex="1">
          <mxGeometry x="210" y="180" width="160" height="120" as="geometry" />
        </mxCell>
        <mxCell id="A8x3jaF49j4qQxxztvDG-11" style="edgeStyle=orthogonalEdgeStyle;rounded=0;orthogonalLoop=1;jettySize=auto;html=1;exitX=1;exitY=0;exitDx=0;exitDy=0;entryX=0;entryY=0;entryDx=0;entryDy=0;" parent="1" source="A8x3jaF49j4qQxxztvDG-3" target="A8x3jaF49j4qQxxztvDG-2" edge="1">
          <mxGeometry relative="1" as="geometry" />
        </mxCell>
        <mxCell id="A8x3jaF49j4qQxxztvDG-3" value="" style="shape=image;html=1;verticalAlign=top;verticalLabelPosition=bottom;labelBackgroundColor=#ffffff;imageAspect=0;aspect=fixed;image=https://cdn1.iconfinder.com/data/icons/seo-outline-colored-free/128/Smartphone_iphone_phone-128.png" parent="1" vertex="1">
          <mxGeometry x="50" y="180" width="80" height="80" as="geometry" />
        </mxCell>
        <mxCell id="A8x3jaF49j4qQxxztvDG-9" value="RQ" style="shape=hexagon;perimeter=hexagonPerimeter2;whiteSpace=wrap;html=1;fixedSize=1;fillColor=#d5e8d4;strokeColor=#82b366;" parent="1" vertex="1">
          <mxGeometry x="140" y="110" width="60" height="40" as="geometry" />
        </mxCell>
        <mxCell id="A8x3jaF49j4qQxxztvDG-13" value="RS" style="shape=hexagon;perimeter=hexagonPerimeter2;whiteSpace=wrap;html=1;fixedSize=1;fillColor=#dae8fc;strokeColor=#6c8ebf;" parent="1" vertex="1">
          <mxGeometry x="140" y="270" width="60" height="40" as="geometry" />
        </mxCell>
        <mxCell id="A8x3jaF49j4qQxxztvDG-14" value="Personal.Banking" style="text;html=1;strokeColor=none;fillColor=none;align=center;verticalAlign=middle;whiteSpace=wrap;rounded=0;" parent="1" vertex="1">
          <mxGeometry x="140" y="350" width="40" height="20" as="geometry" />
        </mxCell>
        <mxCell id="A8x3jaF49j4qQxxztvDG-16" value="RQ" style="shape=hexagon;perimeter=hexagonPerimeter2;whiteSpace=wrap;html=1;fixedSize=1;fillColor=#d5e8d4;strokeColor=#82b366;" parent="1" vertex="1">
          <mxGeometry x="460" y="100" width="60" height="40" as="geometry" />
        </mxCell>
        <mxCell id="A8x3jaF49j4qQxxztvDG-17" value="RS" style="shape=hexagon;perimeter=hexagonPerimeter2;whiteSpace=wrap;html=1;fixedSize=1;fillColor=#dae8fc;strokeColor=#6c8ebf;" parent="1" vertex="1">
          <mxGeometry x="460" y="300" width="60" height="40" as="geometry" />
        </mxCell>
        <mxCell id="A8x3jaF49j4qQxxztvDG-21" style="edgeStyle=orthogonalEdgeStyle;rounded=0;orthogonalLoop=1;jettySize=auto;html=1;exitX=0.25;exitY=1;exitDx=0;exitDy=0;entryX=1;entryY=0.75;entryDx=0;entryDy=0;" parent="1" source="A8x3jaF49j4qQxxztvDG-19" target="A8x3jaF49j4qQxxztvDG-1" edge="1">
          <mxGeometry relative="1" as="geometry" />
        </mxCell>
        <mxCell id="A8x3jaF49j4qQxxztvDG-74" style="edgeStyle=orthogonalEdgeStyle;rounded=0;orthogonalLoop=1;jettySize=auto;html=1;exitX=0.75;exitY=0;exitDx=0;exitDy=0;entryX=0.25;entryY=0;entryDx=0;entryDy=0;" parent="1" source="A8x3jaF49j4qQxxztvDG-19" target="A8x3jaF49j4qQxxztvDG-73" edge="1">
          <mxGeometry relative="1" as="geometry" />
        </mxCell>
        <mxCell id="A8x3jaF49j4qQxxztvDG-19" value="Bus BdB" style="rounded=0;whiteSpace=wrap;html=1;fillColor=#0050ef;strokeColor=#001DBC;fontColor=#ffffff;" parent="1" vertex="1">
          <mxGeometry x="720" y="190" width="120" height="60" as="geometry" />
        </mxCell>
        <mxCell id="A8x3jaF49j4qQxxztvDG-22" value="RQ" style="shape=hexagon;perimeter=hexagonPerimeter2;whiteSpace=wrap;html=1;fixedSize=1;fillColor=#d5e8d4;strokeColor=#82b366;" parent="1" vertex="1">
          <mxGeometry x="690" y="100" width="60" height="40" as="geometry" />
        </mxCell>
        <mxCell id="A8x3jaF49j4qQxxztvDG-23" value="RS" style="shape=hexagon;perimeter=hexagonPerimeter2;whiteSpace=wrap;html=1;fixedSize=1;fillColor=#dae8fc;strokeColor=#6c8ebf;" parent="1" vertex="1">
          <mxGeometry x="690" y="290" width="60" height="40" as="geometry" />
        </mxCell>
        <mxCell id="A8x3jaF49j4qQxxztvDG-24" value="apiconnect" style="text;html=1;strokeColor=none;fillColor=none;align=center;verticalAlign=middle;whiteSpace=wrap;rounded=0;" parent="1" vertex="1">
          <mxGeometry x="410" y="350" width="120" height="20" as="geometry" />
        </mxCell>
        <mxCell id="A8x3jaF49j4qQxxztvDG-25" value="BUS-DATAPOWER" style="text;html=1;strokeColor=none;fillColor=none;align=center;verticalAlign=middle;whiteSpace=wrap;rounded=0;" parent="1" vertex="1">
          <mxGeometry x="650" y="350" width="120" height="20" as="geometry" />
        </mxCell>
        <mxCell id="A8x3jaF49j4qQxxztvDG-26" value="&lt;h1&gt;Models&lt;/h1&gt;&lt;p&gt;INPUT / OUTPUT apiconect/BdB hace las veces de intermediario&lt;br&gt;&lt;/p&gt;" style="text;html=1;strokeColor=#6c8ebf;fillColor=#dae8fc;spacing=5;spacingTop=-20;whiteSpace=wrap;overflow=hidden;rounded=0;" parent="1" vertex="1">
          <mxGeometry x="190" y="420" width="210" height="80" as="geometry" />
        </mxCell>
        <mxCell id="A8x3jaF49j4qQxxztvDG-27" value="&lt;h1&gt;Provaider&lt;/h1&gt;&lt;p&gt;Entidad externa - es el consumo apiconnect&lt;br&gt;&lt;/p&gt;" style="text;html=1;strokeColor=#82b366;fillColor=#d5e8d4;spacing=5;spacingTop=-20;whiteSpace=wrap;overflow=hidden;rounded=0;" parent="1" vertex="1">
          <mxGeometry x="190" y="510" width="210" height="80" as="geometry" />
        </mxCell>
        <mxCell id="A8x3jaF49j4qQxxztvDG-28" value="&lt;h1&gt;Mapper&lt;br&gt;&lt;/h1&gt;&lt;p&gt;Mapea la info de apiconnect a front&lt;br&gt;&lt;/p&gt;" style="text;html=1;strokeColor=#d79b00;fillColor=#ffe6cc;spacing=5;spacingTop=-20;whiteSpace=wrap;overflow=hidden;rounded=0;" parent="1" vertex="1">
          <mxGeometry x="190" y="600" width="210" height="80" as="geometry" />
        </mxCell>
        <mxCell id="A8x3jaF49j4qQxxztvDG-29" value="&lt;h1&gt;Orchestations&lt;br&gt;&lt;/h1&gt;&lt;p&gt;Va el mapeo de lo que va y viene de la app a apiconect y apiconect -&amp;gt; app&lt;br&gt;&lt;/p&gt;" style="text;html=1;strokeColor=#9673a6;fillColor=#e1d5e7;spacing=5;spacingTop=-20;whiteSpace=wrap;overflow=hidden;rounded=0;" parent="1" vertex="1">
          <mxGeometry x="190" y="690" width="210" height="80" as="geometry" />
        </mxCell>
        <mxCell id="A8x3jaF49j4qQxxztvDG-30" value="&lt;h1&gt;Controller&lt;br&gt;&lt;/h1&gt;&lt;p&gt;entidad que expone los servicios a ser consumidos por la app&lt;br&gt;&lt;/p&gt;" style="text;html=1;strokeColor=#b85450;fillColor=#f8cecc;spacing=5;spacingTop=-20;whiteSpace=wrap;overflow=hidden;rounded=0;" parent="1" vertex="1">
          <mxGeometry x="190" y="780" width="210" height="80" as="geometry" />
        </mxCell>
        <mxCell id="A8x3jaF49j4qQxxztvDG-31" value="" style="endArrow=none;dashed=1;html=1;dashPattern=1 3;strokeWidth=2;entryX=0.5;entryY=1;entryDx=0;entryDy=0;exitX=0.457;exitY=-0.037;exitDx=0;exitDy=0;exitPerimeter=0;" parent="1" source="A8x3jaF49j4qQxxztvDG-26" target="A8x3jaF49j4qQxxztvDG-2" edge="1">
          <mxGeometry width="50" height="50" relative="1" as="geometry">
            <mxPoint x="610" y="580" as="sourcePoint" />
            <mxPoint x="660" y="530" as="targetPoint" />
          </mxGeometry>
        </mxCell>
        <mxCell id="A8x3jaF49j4qQxxztvDG-32" value="&lt;b&gt;@Getters&lt;/b&gt;" style="text;html=1;strokeColor=none;fillColor=none;align=center;verticalAlign=middle;whiteSpace=wrap;rounded=0;" parent="1" vertex="1">
          <mxGeometry x="150" y="60" width="40" height="20" as="geometry" />
        </mxCell>
        <mxCell id="A8x3jaF49j4qQxxztvDG-33" value="&lt;b&gt;@Setters&lt;/b&gt;" style="text;html=1;strokeColor=none;fillColor=none;align=center;verticalAlign=middle;whiteSpace=wrap;rounded=0;" parent="1" vertex="1">
          <mxGeometry x="150" y="80" width="40" height="20" as="geometry" />
        </mxCell>
        <mxCell id="A8x3jaF49j4qQxxztvDG-34" value="&lt;b&gt;@Getters&lt;/b&gt;" style="text;html=1;strokeColor=none;fillColor=none;align=center;verticalAlign=middle;whiteSpace=wrap;rounded=0;" parent="1" vertex="1">
          <mxGeometry x="80" y="290" width="40" height="20" as="geometry" />
        </mxCell>
        <mxCell id="A8x3jaF49j4qQxxztvDG-35" value="&lt;b&gt;@Build&lt;/b&gt;" style="text;html=1;strokeColor=none;fillColor=none;align=center;verticalAlign=middle;whiteSpace=wrap;rounded=0;" parent="1" vertex="1">
          <mxGeometry x="80" y="310" width="40" height="20" as="geometry" />
        </mxCell>
        <mxCell id="A8x3jaF49j4qQxxztvDG-36" value="&lt;b&gt;@Getters&lt;/b&gt;" style="text;html=1;strokeColor=none;fillColor=none;align=center;verticalAlign=middle;whiteSpace=wrap;rounded=0;" parent="1" vertex="1">
          <mxGeometry x="420" y="70" width="40" height="20" as="geometry" />
        </mxCell>
        <mxCell id="A8x3jaF49j4qQxxztvDG-37" value="&lt;b&gt;@Build&lt;/b&gt;" style="text;html=1;strokeColor=none;fillColor=none;align=center;verticalAlign=middle;whiteSpace=wrap;rounded=0;" parent="1" vertex="1">
          <mxGeometry x="420" y="90" width="40" height="20" as="geometry" />
        </mxCell>
        <mxCell id="A8x3jaF49j4qQxxztvDG-38" value="&lt;b&gt;@Getters&lt;/b&gt;" style="text;html=1;strokeColor=none;fillColor=none;align=center;verticalAlign=middle;whiteSpace=wrap;rounded=0;" parent="1" vertex="1">
          <mxGeometry x="520" y="330" width="40" height="20" as="geometry" />
        </mxCell>
        <mxCell id="A8x3jaF49j4qQxxztvDG-39" value="&lt;b&gt;@Setters&lt;/b&gt;" style="text;html=1;strokeColor=none;fillColor=none;align=center;verticalAlign=middle;whiteSpace=wrap;rounded=0;" parent="1" vertex="1">
          <mxGeometry x="520" y="350" width="40" height="20" as="geometry" />
        </mxCell>
        <mxCell id="A8x3jaF49j4qQxxztvDG-40" value="Dominio front" style="text;html=1;strokeColor=none;fillColor=none;align=center;verticalAlign=middle;whiteSpace=wrap;rounded=0;" parent="1" vertex="1">
          <mxGeometry x="190" y="70" width="120" height="20" as="geometry" />
        </mxCell>
        <mxCell id="A8x3jaF49j4qQxxztvDG-42" value="Siempre extiende de BdBGenericRequest" style="text;html=1;strokeColor=none;fillColor=none;align=center;verticalAlign=middle;whiteSpace=wrap;rounded=0;" parent="1" vertex="1">
          <mxGeometry y="120" width="120" height="20" as="geometry" />
        </mxCell>
        <mxCell id="A8x3jaF49j4qQxxztvDG-51" style="edgeStyle=orthogonalEdgeStyle;rounded=0;orthogonalLoop=1;jettySize=auto;html=1;exitX=1;exitY=0.5;exitDx=0;exitDy=0;" parent="1" source="A8x3jaF49j4qQxxztvDG-43" edge="1">
          <mxGeometry relative="1" as="geometry">
            <mxPoint x="580" y="640" as="targetPoint" />
          </mxGeometry>
        </mxCell>
        <mxCell id="A8x3jaF49j4qQxxztvDG-43" value="Maper" style="shape=parallelogram;perimeter=parallelogramPerimeter;whiteSpace=wrap;html=1;fixedSize=1;fillColor=#ffe6cc;strokeColor=#d79b00;" parent="1" vertex="1">
          <mxGeometry x="480" y="625" width="70" height="30" as="geometry" />
        </mxCell>
        <mxCell id="A8x3jaF49j4qQxxztvDG-46" style="edgeStyle=orthogonalEdgeStyle;rounded=0;orthogonalLoop=1;jettySize=auto;html=1;exitX=1;exitY=0.5;exitDx=0;exitDy=0;" parent="1" source="A8x3jaF49j4qQxxztvDG-44" target="A8x3jaF49j4qQxxztvDG-43" edge="1">
          <mxGeometry relative="1" as="geometry" />
        </mxCell>
        <mxCell id="A8x3jaF49j4qQxxztvDG-44" value="Front" style="text;html=1;strokeColor=none;fillColor=none;align=center;verticalAlign=middle;whiteSpace=wrap;rounded=0;" parent="1" vertex="1">
          <mxGeometry x="410" y="630" width="40" height="20" as="geometry" />
        </mxCell>
        <mxCell id="A8x3jaF49j4qQxxztvDG-48" value="RQ" style="shape=hexagon;perimeter=hexagonPerimeter2;whiteSpace=wrap;html=1;fixedSize=1;fillColor=#d5e8d4;strokeColor=#82b366;" parent="1" vertex="1">
          <mxGeometry x="420" y="600" width="30" height="25" as="geometry" />
        </mxCell>
        <mxCell id="A8x3jaF49j4qQxxztvDG-49" value="ApiConnect" style="text;html=1;strokeColor=none;fillColor=none;align=center;verticalAlign=middle;whiteSpace=wrap;rounded=0;" parent="1" vertex="1">
          <mxGeometry x="590" y="630" width="40" height="20" as="geometry" />
        </mxCell>
        <mxCell id="A8x3jaF49j4qQxxztvDG-52" value="RQ" style="shape=hexagon;perimeter=hexagonPerimeter2;whiteSpace=wrap;html=1;fixedSize=1;fillColor=#d5e8d4;strokeColor=#82b366;size=130;" parent="1" vertex="1">
          <mxGeometry x="580" y="600" width="30" height="25" as="geometry" />
        </mxCell>
        <mxCell id="A8x3jaF49j4qQxxztvDG-55" style="edgeStyle=orthogonalEdgeStyle;rounded=0;orthogonalLoop=1;jettySize=auto;html=1;exitX=1;exitY=0.5;exitDx=0;exitDy=0;" parent="1" source="A8x3jaF49j4qQxxztvDG-56" edge="1">
          <mxGeometry relative="1" as="geometry">
            <mxPoint x="890" y="640" as="targetPoint" />
          </mxGeometry>
        </mxCell>
        <mxCell id="A8x3jaF49j4qQxxztvDG-56" value="Maper" style="shape=parallelogram;perimeter=parallelogramPerimeter;whiteSpace=wrap;html=1;fixedSize=1;fillColor=#dae8fc;strokeColor=#6c8ebf;" parent="1" vertex="1">
          <mxGeometry x="790" y="625" width="70" height="30" as="geometry" />
        </mxCell>
        <mxCell id="A8x3jaF49j4qQxxztvDG-58" value="Front" style="text;html=1;strokeColor=none;fillColor=none;align=center;verticalAlign=middle;whiteSpace=wrap;rounded=0;" parent="1" vertex="1">
          <mxGeometry x="900" y="630" width="40" height="20" as="geometry" />
        </mxCell>
        <mxCell id="A8x3jaF49j4qQxxztvDG-66" style="edgeStyle=orthogonalEdgeStyle;rounded=0;orthogonalLoop=1;jettySize=auto;html=1;entryX=0;entryY=0.5;entryDx=0;entryDy=0;" parent="1" target="A8x3jaF49j4qQxxztvDG-56" edge="1">
          <mxGeometry relative="1" as="geometry">
            <mxPoint x="770" y="640" as="sourcePoint" />
          </mxGeometry>
        </mxCell>
        <mxCell id="A8x3jaF49j4qQxxztvDG-60" value="ApiConnect" style="text;html=1;strokeColor=none;fillColor=none;align=center;verticalAlign=middle;whiteSpace=wrap;rounded=0;" parent="1" vertex="1">
          <mxGeometry x="720" y="630" width="40" height="20" as="geometry" />
        </mxCell>
        <mxCell id="A8x3jaF49j4qQxxztvDG-62" value="RS" style="shape=hexagon;perimeter=hexagonPerimeter2;whiteSpace=wrap;html=1;fixedSize=1;fillColor=#dae8fc;strokeColor=#6c8ebf;size=340;" parent="1" vertex="1">
          <mxGeometry x="730" y="595" width="30" height="30" as="geometry" />
        </mxCell>
        <mxCell id="A8x3jaF49j4qQxxztvDG-65" value="RS" style="shape=hexagon;perimeter=hexagonPerimeter2;whiteSpace=wrap;html=1;fixedSize=1;fillColor=#dae8fc;strokeColor=#6c8ebf;size=340;" parent="1" vertex="1">
          <mxGeometry x="880" y="590" width="30" height="30" as="geometry" />
        </mxCell>
        <mxCell id="A8x3jaF49j4qQxxztvDG-67" value="" style="rounded=0;whiteSpace=wrap;html=1;fillColor=#d5e8d4;strokeColor=#82b366;" parent="1" vertex="1">
          <mxGeometry x="350" y="200" width="20" height="80" as="geometry" />
        </mxCell>
        <mxCell id="A8x3jaF49j4qQxxztvDG-68" value="" style="rounded=0;whiteSpace=wrap;html=1;fillColor=#e1d5e7;strokeColor=#9673a6;" parent="1" vertex="1">
          <mxGeometry x="260" y="260" width="60" height="30" as="geometry" />
        </mxCell>
        <mxCell id="A8x3jaF49j4qQxxztvDG-69" value="" style="whiteSpace=wrap;html=1;aspect=fixed;fillColor=#ffe6cc;strokeColor=#d79b00;" parent="1" vertex="1">
          <mxGeometry x="260" y="190" width="20" height="20" as="geometry" />
        </mxCell>
        <mxCell id="A8x3jaF49j4qQxxztvDG-70" value="" style="whiteSpace=wrap;html=1;aspect=fixed;fillColor=#ffe6cc;strokeColor=#d79b00;" parent="1" vertex="1">
          <mxGeometry x="300" y="190" width="20" height="20" as="geometry" />
        </mxCell>
        <mxCell id="A8x3jaF49j4qQxxztvDG-71" value="" style="rounded=0;whiteSpace=wrap;html=1;fillColor=#f8cecc;strokeColor=#b85450;" parent="1" vertex="1">
          <mxGeometry x="210" y="210" width="20" height="60" as="geometry" />
        </mxCell>
        <mxCell id="A8x3jaF49j4qQxxztvDG-72" value="https://apicapi-gateway-qa.appsptqa.ath.com.co/org-qa/api-pb/paymentManagement/v1/Payments_Taxes&lt;br&gt;&lt;div&gt;https://apicapi-gateway-qa.appsptqa.ath.com.co/org-qa/api-mb/paymentManagement/v1/Payments_Taxes&lt;/div&gt;&lt;div&gt;&lt;br&gt;&lt;/div&gt;&lt;div&gt;____________________________________________________________________&lt;br&gt;Esta prueba se realiza en postman y si esta falla se reporta en servicios compartidos&lt;/div&gt;&lt;div&gt;&lt;br&gt;&lt;/div&gt;&lt;div&gt;TABLERO:&lt;br&gt;&lt;/div&gt;&lt;div&gt;https://avaldigitallabs.atlassian.net/secure/RapidBoard.jspa?rapidView=68&lt;br&gt;&lt;/div&gt;" style="text;whiteSpace=wrap;html=1;fillColor=#e3c800;strokeColor=#B09500;fontColor=#000000;" parent="1" vertex="1">
          <mxGeometry x="381" y="-109" width="460" height="170" as="geometry" />
        </mxCell>
        <mxCell id="A8x3jaF49j4qQxxztvDG-75" style="edgeStyle=orthogonalEdgeStyle;rounded=0;orthogonalLoop=1;jettySize=auto;html=1;exitX=0.25;exitY=1;exitDx=0;exitDy=0;entryX=0.75;entryY=1;entryDx=0;entryDy=0;" parent="1" source="A8x3jaF49j4qQxxztvDG-73" target="A8x3jaF49j4qQxxztvDG-19" edge="1">
          <mxGeometry relative="1" as="geometry" />
        </mxCell>
        <mxCell id="A8x3jaF49j4qQxxztvDG-73" value="Bus ATH" style="rounded=0;whiteSpace=wrap;html=1;fillColor=#fa6800;strokeColor=#C73500;fontColor=#000000;" parent="1" vertex="1">
          <mxGeometry x="930" y="190" width="120" height="60" as="geometry" />
        </mxCell>
        <mxCell id="A8x3jaF49j4qQxxztvDG-76" value="RQ" style="shape=hexagon;perimeter=hexagonPerimeter2;whiteSpace=wrap;html=1;fixedSize=1;fillColor=#d5e8d4;strokeColor=#82b366;" parent="1" vertex="1">
          <mxGeometry x="860" y="100" width="60" height="40" as="geometry" />
        </mxCell>
        <mxCell id="A8x3jaF49j4qQxxztvDG-77" value="RS" style="shape=hexagon;perimeter=hexagonPerimeter2;whiteSpace=wrap;html=1;fixedSize=1;fillColor=#dae8fc;strokeColor=#6c8ebf;" parent="1" vertex="1">
          <mxGeometry x="865" y="290" width="60" height="40" as="geometry" />
        </mxCell>
        <mxCell id="A8x3jaF49j4qQxxztvDG-78" value="https://datapower.bbog:3943/payment/event/PaymentTaxDianManagement&lt;br&gt;&lt;div&gt;https://datapower.bbog:3945/payment/event/PaymentTaxDianManagement&lt;/div&gt;&lt;div&gt;&lt;br&gt;&lt;/div&gt;&lt;div&gt;____________________________________________________________&lt;/div&gt;&lt;div&gt;es necesario hacer pruebas en AWS y si este falla reportar las tramas de RQ y RS en un APQ&amp;nbsp; &lt;br&gt;&lt;/div&gt;&lt;div&gt;&lt;b&gt;IMPORTANTE!! puerto 3590 (laboratorio) se usa para consumir desde AWS pero, el puesto que usan las apis es el 3943 (Apiconnect)&lt;/b&gt;&lt;br&gt;&lt;/div&gt;&lt;div&gt;TABLERO:&lt;/div&gt;&lt;div&gt;https://bancodebogota.atlassian.net/secure/RapidBoard.jspa?rapidView=480&amp;amp;selectedIssue=APQ-174&lt;br&gt;&lt;/div&gt;&lt;div&gt;&lt;br&gt;&lt;/div&gt;" style="text;whiteSpace=wrap;html=1;fillColor=#0050ef;strokeColor=#001DBC;fontColor=#ffffff;" parent="1" vertex="1">
          <mxGeometry x="860" y="-110" width="420" height="170" as="geometry" />
        </mxCell>
        <UserObject label="https://dpbalancer.ath.com:5002/Payments/MBBillingInquiry" link="https://dpbalancer.ath.com:5002/Payments/MBBillingInquiry" id="A8x3jaF49j4qQxxztvDG-79">
          <mxCell style="text;whiteSpace=wrap;html=1;fillColor=#fa6800;strokeColor=#C73500;fontColor=#000000;" parent="1" vertex="1">
            <mxGeometry x="1310" y="-110" width="370" height="50" as="geometry" />
          </mxCell>
        </UserObject>
        <mxCell id="A8x3jaF49j4qQxxztvDG-80" value="DEV: &amp;nbsp; &lt;span style=&quot;white-space: pre&quot;&gt; &lt;/span&gt;&amp;nbsp;https://pb-dev-api-bogota.avaldigitallabs.com/api-gateway/&lt;br&gt;STG:&amp;nbsp;&amp;nbsp;&lt;span style=&quot;white-space: pre&quot;&gt; &lt;/span&gt; https://mb-stg-api-bogota.avaldigitallabs.com/api-gateway/&lt;br&gt;&lt;div&gt;PRO:&amp;nbsp;&lt;span style=&quot;white-space: pre&quot;&gt; &lt;/span&gt; https://mb-api-bogota.avaldigitallabs.com/api-gateway/&lt;/div&gt;&lt;div&gt;LOCAL: &lt;span style=&quot;white-space: pre&quot;&gt; &lt;/span&gt;&lt;span style=&quot;white-space: pre&quot;&gt; &lt;/span&gt;http://localhost:8116/api-gateway/&lt;br&gt;&lt;/div&gt;" style="text;whiteSpace=wrap;html=1;fillColor=#00CC00;" parent="1" vertex="1">
          <mxGeometry x="25" y="-110" width="345" height="130" as="geometry" />
        </mxCell>
      </root>
    </mxGraphModel>
  </diagram>
</mxfile>
